<svg xmlns="http://www.w3.org/2000/svg" viewBox="0 0 120 90">
  <rect x="16" y="14" width="88" height="44" rx="4" fill="#ffffff" stroke="#e8e6e1"/>
  <path d="M 50 14 L 66 58 L 78 58 L 62 14 Z" fill="#2b2b2b"/>
  <g stroke="#f57c2a" stroke-width="1.5" opacity="0.75">
    <line x1="27" y1="14" x2="27" y2="58"/><line x1="38" y1="14" x2="38" y2="58"/>
    <line x1="49" y1="14" x2="49" y2="58"/><line x1="60" y1="14" x2="60" y2="58"/>
    <line x1="71" y1="14" x2="71" y2="58"/><line x1="82" y1="14" x2="82" y2="58"/>
    <line x1="93" y1="14" x2="93" y2="58"/>
  </g>
  <g fill="#f57c2a">
    <rect x="18" y="76" width="9" height="6" rx="1.5" fill="#fdeee0"/>
    <rect x="29" y="74" width="9" height="8" rx="1.5" fill="#fdeee0"/>
    <rect x="40" y="70" width="9" height="12" rx="1.5"/>
    <rect x="51" y="64" width="9" height="18" rx="1.5"/>
    <rect x="62" y="64" width="9" height="18" rx="1.5"/>
    <rect x="73" y="72" width="9" height="10" rx="1.5"/>
    <rect x="84" y="76" width="9" height="6" rx="1.5" fill="#fdeee0"/>
    <rect x="95" y="76" width="9" height="6" rx="1.5" fill="#fdeee0"/>
  </g>
</svg>
